# xmcd CD database file
#
# Track frame offsets:
#	150
#	12350
#	29892
#	40887
#	57780
#	71415
#	82680
#	101027
#	118557
#	130097
#	152755
#	166977
#
# Disc length: 2536 seconds
#
# Revision: 1
# Processed by: cddbd v1.5.1PL2 Copyright (c) Steve Scherf et al.
# Submitted via: CDex 1.60beta1
#
DISCID=9409e60c
DTITLE=Various Artist - MEMORIES OF NEW YORK Disc1
DYEAR=1992
DGENRE=Jazz
TTITLE0=AUTUMUN IN NEW YORK - JO STAFFORD
TTITLE1=TAKE THE A TRAIN - RAY BRYANT
TTITLE2=LULLABY OF BIRDLAND - STAN GETZ
TTITLE3=TONIGHT - TOMMY FLANAGAN
TTITLE4=LULLABY OF BROADWAY - ANN RICHARDS
TTITLE5=STELLA BY STARLIGHT - KENNY DREW
TTITLE6=STOMPIN' AT THE SAVOY - JIM HALL
TTITLE7=SOPHISTICATED LADY - SARAH VAUGHAN
TTITLE8=SUMMERTIME - HANK JONES
TTITLE9=BROADWAY - ART PEPPER
TTITLE10=MISTY - JUNE CHRISTY
TTITLE11=MOON RIVER - ART BLAKEY
EXTD=YEAR: 1992
EXTT0=
EXTT1=
EXTT2=
EXTT3=
EXTT4=
EXTT5=
EXTT6=
EXTT7=
EXTT8=
EXTT9=
EXTT10=
EXTT11=
PLAYORDER=
